<svg width="600" height="600" fill="none" xmlns="http://www.w3.org/2000/svg"><g clip-path="url(#a)"><path d="M300.932 65.68v476.613c-56.445-34.946-157.503-96.648-184.603-208.104-33.566-138.069-29.75-214.345-29.75-214.345s25.935-7.63 99.93-26.703c78.332-20.183 114.423-27.46 114.423-27.46Z" fill="red"/><path d="M484.213 333.855c-27.091 111.456-128.149 173.159-184.594 208.104V65.346s36.091 7.27 114.423 27.46c73.986 19.074 99.931 26.704 99.931 26.704s3.815 76.276-29.751 214.345h-.009Z" fill="#0F1D24"/><path d="M483.871 338.698c-27.09 111.456-128.149 173.158-184.594 208.104V70.189s36.091 7.269 114.423 27.46c73.986 19.074 99.931 26.704 99.931 26.704s3.815 76.276-29.751 214.345h-.009Z" fill="#070707"/><path d="M299.621 184.522c-51.359 0-92.996 41.637-92.996 92.996 0 51.359 41.637 92.996 92.996 92.996 51.359 0 92.996-41.637 92.996-92.996 0-51.359-41.637-92.996-92.996-92.996Zm0 172.979c-44.171 0-79.992-35.812-79.992-79.992 0-44.18 35.812-79.992 79.992-79.992 44.18 0 79.991 35.812 79.991 79.992 0 44.18-35.811 79.992-79.991 79.992Z" fill="#FDFEFE"/><g filter="url(#b)"><path d="M299.621 240.399c-20.498 0-37.119 16.621-37.119 37.119s16.621 37.119 37.119 37.119 37.119-16.621 37.119-37.119-16.621-37.119-37.119-37.119Zm0 64.065c-14.88 0-26.946-12.066-26.946-26.946s12.066-26.946 26.946-26.946 26.946 12.066 26.946 26.946-12.066 26.946-26.946 26.946Z" fill="#FDFEFE"/></g><path d="m531.569 118.744-.676-13.6-13.059-3.842c-1.064-.315-26.901-7.882-99.831-26.676-77.368-19.939-113.107-27.19-114.595-27.487l-3.787-.767-3.788.767c-1.488.297-37.218 7.548-114.594 27.487-72.931 18.794-98.768 26.37-99.832 26.676l-13.058 3.842-.677 13.6c-.162 3.201-3.544 80.099 30.049 218.285 12.436 51.143 41.096 98.335 85.195 140.27 36.515 34.72 76.168 59.258 105.134 77.178l11.571 7.16 11.57-7.16c28.957-17.92 68.62-42.467 105.134-77.178 44.099-41.935 72.759-89.127 85.196-140.27 33.592-138.186 30.211-215.075 30.048-218.285Zm-39.364 216.022c-11.995 49.32-39.744 94.944-82.481 135.58-35.793 34.034-74.968 58.275-103.565 75.978l-6.529 4.04-6.53-4.04c-28.605-17.703-67.78-41.944-103.574-75.978-42.737-40.645-70.495-86.26-82.48-135.58-33.269-136.852-29.959-212.397-29.797-215.545l.343-6.799 6.53-1.921c.26-.072 26.747-7.837 99.515-26.595 77.124-19.876 113.729-27.307 114.09-27.38l1.894-.378 1.893.379c.361.072 36.975 7.503 114.09 27.38 72.768 18.757 99.254 26.513 99.516 26.594l6.529 1.921.343 6.799c.153 3.148 3.472 78.693-29.796 215.536l.009.009Z" fill="#0D1A20"/><path d="M285.677 558.661c-29.129-18.027-69.016-42.71-105.865-77.746-44.739-42.539-73.832-90.471-86.467-142.47C59.581 199.556 63 122.098 63.17 118.87l.84-16.792 16.133-4.744c1.064-.316 26.883-7.882 99.976-26.72C257.684 50.62 293.46 43.368 294.948 43.07l4.68-.938 4.681.947c1.488.298 37.335 7.576 114.829 27.542 73.092 18.84 98.911 26.405 99.976 26.721l16.133 4.744.839 16.792c.162 3.228 3.589 80.686-30.175 219.575-12.644 51.999-41.736 99.931-86.467 142.47-36.848 35.036-76.736 59.728-105.865 77.746l-13.942 8.63-13.942-8.63-.018-.009ZM81.748 119.798c-.153 3.121-3.427 78.098 29.67 214.246 11.778 48.464 39.103 93.348 81.209 133.38 35.451 33.71 74.4 57.815 102.835 75.41l4.157 2.57 4.158-2.57c28.443-17.604 67.384-41.7 102.834-75.41 42.106-40.041 69.423-84.916 81.209-133.38 33.115-136.229 29.824-211.125 29.67-214.246l-.18-3.598-3.454-1.019c-.262-.072-26.73-7.828-99.372-26.55C337.577 68.81 300.99 61.379 300.629 61.306l-1.001-.198-1.001.198c-.361.072-36.947 7.503-113.855 27.326-72.633 18.721-99.11 26.477-99.372 26.549l-3.463 1.019-.18 3.598h-.009Z" fill="#0D1A20"/><path fill-rule="evenodd" clip-rule="evenodd" d="m520.603 127.852-.649-12.95-12.446-3.662c-1.01-.297-25.629-7.512-95.106-25.413-73.715-19.001-107.758-25.91-109.174-26.19l-3.608-.73-3.607.73-.032.008c-1.838.374-35.917 7.316-109.142 26.182-69.486 17.91-94.096 25.116-95.106 25.413l-12.446 3.662-.649 12.95c-.153 3.057-3.373 76.312 28.633 207.969 11.841 48.725 39.157 93.69 81.164 133.641 34.783 33.079 72.569 56.463 100.165 73.534l11.02 6.827 11.021-6.827c27.586-17.071 65.373-40.455 100.165-73.534 42.016-39.951 69.323-84.916 81.164-133.641 32.006-131.657 28.786-204.912 28.633-207.969Zm-37.507 205.804c-11.426 46.994-37.867 90.453-78.585 129.177-34.092 32.425-71.412 55.518-98.664 72.382l-.013.008-.804.497V370.505h-4.099c48.407-.669 87.878-38.327 91.425-85.987h101.663a1260.215 1260.215 0 0 1-10.932 49.138h.009Zm-184.788 36.849h-4.1v165.22l-.81-.502c-27.253-16.864-64.571-39.96-98.677-72.39-40.727-38.724-67.159-82.183-78.585-129.177a1261.742 1261.742 0 0 1-10.933-49.138h101.68c3.547 47.66 43.018 85.318 91.425 85.987Zm1.289 168.559.014.009.015-.009h-.029ZM96.821 237.714a1057.425 1057.425 0 0 0 5.656 32.804h104.406c3.446-46.307 40.806-83.172 87.325-85.841V69.339c-10.623 2.263-44.914 9.813-105.097 25.326-69.323 17.865-94.565 25.26-94.808 25.332l-6.223 1.831-.325 6.475c-.096 2.008-1.544 34.866 6.987 95.411h77.11A9.468 9.468 0 0 1 178.5 221a9.5 9.5 0 0 1 9.5 9.5 9.5 9.5 0 0 1-9.5 9.5 9.462 9.462 0 0 1-6.182-2.286H96.821ZM305.03 69.342c10.642 2.267 44.928 9.817 105.082 25.323 69.332 17.865 94.565 25.26 94.808 25.332l6.223 1.831.324 6.475c.103 2.008 1.549 34.863-6.985 95.411h-77.355a9.244 9.244 0 0 0-6.102-2.287 9.287 9.287 0 1 0 6.102 16.287h75.276a1059.96 1059.96 0 0 1-5.657 32.804h-104.39c-3.447-46.307-40.807-83.172-87.326-85.841V69.342ZM178.435 234.055a3.342 3.342 0 1 0 0-6.683 3.342 3.342 0 0 0 0 6.683Zm8.116 122.012a8.116 8.116 0 1 1-16.233 0 8.116 8.116 0 0 1 16.233 0Zm-4.774 0a3.342 3.342 0 1 1-6.685 0 3.342 3.342 0 0 1 6.685 0ZM417.2 230.713a3.824 3.824 0 1 0 7.648 0 3.824 3.824 0 0 0-7.648 0Zm2.656 135.807a9.285 9.285 0 1 1 0-18.57 9.285 9.285 0 1 1 0 18.57Zm-.001-5.461a3.823 3.823 0 1 1 0-7.646 3.823 3.823 0 0 1 0 7.646Zm-200.218-84.782v2.464c.659 43.612 36.223 78.76 79.982 78.76 44.181 0 79.992-35.812 79.992-79.992 0-44.18-35.811-79.991-79.992-79.991-43.768 0-79.323 35.147-79.982 78.759Z" fill="#fff"/><path fill-rule="evenodd" clip-rule="evenodd" d="M402.241 181.397a8.01 8.01 0 1 0-12.546-9.206l-36.631 30.737 8.999 10.725 36.333-30.488a7.975 7.975 0 0 0 3.845-1.768Zm-7.778-4.146.213.254a3.298 3.298 0 1 0-.213-.254ZM198.998 183.2a8.01 8.01 0 1 1 12.546-9.206l36.632 30.737-8.999 10.725-36.334-30.487a7.967 7.967 0 0 1-3.845-1.769Zm7.769-4.134-.195.232a3.297 3.297 0 1 1 .195-.232Zm16.756 190.312c0-.454.171-.892.479-1.225l17.341-18.744a1.804 1.804 0 0 0-.099-2.549l-5.296-4.899a1.803 1.803 0 0 0-2.549.099l-20.419 22.071a.16.16 0 0 1-.118.052.16.16 0 0 0-.161.161v24.544a6.313 6.313 0 1 0 10.822-.004v-19.506Zm150.388-1.968c.309.333.48.77.48 1.224v19.505a6.313 6.313 0 1 0 10.822.004V363.6a.162.162 0 0 0-.162-.162.164.164 0 0 1-.12-.052l-20.418-22.072a1.803 1.803 0 0 0-2.548-.099l-5.296 4.9a1.802 1.802 0 0 0-.1 2.548l17.342 18.747Z" fill="#fff"/></g><defs><clipPath id="a"><path fill="#fff" transform="translate(63 26)" d="M0 0h473.24v547.442H0z"/></clipPath><filter id="b" x="262.502" y="229.577" width="101.293" height="99.489" filterUnits="userSpaceOnUse" color-interpolation-filters="sRGB"><feFlood flood-opacity="0" result="BackgroundImageFix"/><feColorMatrix in="SourceAlpha" values="0 0 0 0 0 0 0 0 0 0 0 0 0 0 0 0 0 0 127 0" result="hardAlpha"/><feOffset dx="14.429" dy="1.804"/><feGaussianBlur stdDeviation="6.313"/><feColorMatrix values="0 0 0 0 0.137255 0 0 0 0 0.121569 0 0 0 0 0.12549 0 0 0 0.45 0"/><feBlend in2="BackgroundImageFix" result="effect1_dropShadow_172_139"/><feBlend in="SourceGraphic" in2="effect1_dropShadow_172_139" result="shape"/></filter></defs></svg>